<?xml version="1.0" standalone="no"?>
<!DOCTYPE svg PUBLIC "-//W3C//DTD SVG 20010904//EN"
 "http://www.w3.org/TR/2001/REC-SVG-20010904/DTD/svg10.dtd">
<svg version="1.0" xmlns="http://www.w3.org/2000/svg"
 width="225.000000pt" height="225.000000pt" viewBox="0 0 225.000000 225.000000"
 preserveAspectRatio="xMidYMid meet">
<metadata>
Created by potrace 1.14, written by Peter Selinger 2001-2017
</metadata>
<g transform="translate(0.000000,225.000000) scale(0.100000,-0.100000)"
fill="#000000" stroke="none">
<path d="M1584 1858 c-11 -16 -43 -101 -57 -150 -12 -42 1 -68 35 -68 29 0 45
22 74 100 33 92 30 124 -13 128 -18 2 -35 -2 -39 -10z"/>
<path d="M860 1762 c-14 -4 -26 -14 -28 -22 -1 -8 25 -123 57 -255 44 -177 57
-242 48 -247 -21 -13 -113 -9 -165 8 -67 22 -117 64 -150 128 -22 43 -27 64
-27 132 0 94 -5 103 -77 134 -58 25 -179 33 -199 13 -18 -18 -24 -118 -9 -153
19 -45 56 -70 104 -70 43 0 105 31 107 52 0 7 9 -17 20 -55 45 -158 146 -242
307 -254 39 -3 72 -7 72 -9 0 -2 -47 -92 -105 -201 l-105 -197 0 -162 c0 -136
3 -165 16 -179 33 -33 39 -13 42 138 1 81 6 147 11 147 13 0 129 -44 209 -81
l72 -32 0 -171 c0 -181 8 -217 44 -203 14 6 16 30 16 200 l0 194 128 95 c70
52 139 103 155 113 l27 17 0 -163 c0 -90 4 -170 9 -177 5 -8 17 -12 27 -10 18
3 19 19 25 258 6 265 15 334 65 534 14 54 34 116 45 137 10 21 19 44 19 51 -1
22 -117 118 -206 169 -88 51 -197 91 -296 108 -81 14 -228 22 -258 13z m247
-73 c59 -11 137 -32 173 -46 76 -31 196 -102 227 -135 l22 -23 -157 -68 c-86
-38 -162 -69 -168 -70 -10 -2 -39 32 -227 276 l-68 87 45 0 c25 0 94 -9 153
-21z m-651 -119 c40 0 44 -15 13 -54 -15 -19 -30 -26 -54 -26 -38 0 -55 20
-55 66 0 24 2 26 31 20 17 -3 47 -6 65 -6z m588 -129 l96 -124 -61 -28 c-33
-16 -64 -29 -68 -29 -4 0 -21 62 -39 138 -18 75 -35 148 -39 162 -8 33 -4 29
111 -119z m468 -93 c-11 -34 -29 -115 -41 -178 -13 -63 -25 -125 -27 -138 -4
-20 -17 -7 -80 84 -41 59 -86 121 -100 137 -13 16 -24 32 -24 36 0 8 282 132
288 126 2 -1 -5 -32 -16 -67z m-237 -209 c47 -63 85 -118 85 -123 0 -9 1 -10
-183 113 l-128 85 63 27 c35 14 67 23 71 19 4 -4 46 -58 92 -121z m-66 -102
l202 -134 -26 -17 c-25 -16 -26 -16 -193 94 -241 160 -223 146 -210 175 6 13
14 22 18 20 4 -2 98 -65 209 -138z m18 -154 c-4 -3 -316 105 -325 113 -2 1 7
20 19 41 l23 40 143 -95 c79 -52 142 -97 140 -99z m-205 6 c78 -28 166 -59
195 -68 l52 -17 -69 -53 c-43 -33 -74 -50 -82 -45 -7 4 -70 50 -140 102 -113
83 -127 96 -118 113 6 10 12 19 14 19 2 0 69 -23 148 -51z m-2 -187 c53 -41
43 -39 -108 22 -62 25 -117 46 -122 46 -6 0 -1 18 10 40 l21 40 77 -57 c42
-31 97 -72 122 -91z"/>
<path d="M1737 1672 c-85 -63 -101 -82 -92 -112 10 -33 42 -34 88 -4 142 93
170 127 135 162 -22 22 -53 12 -131 -46z"/>
<path d="M1798 1501 c-79 -19 -91 -29 -86 -67 2 -22 9 -30 27 -32 19 -3 106
13 184 35 14 4 17 13 15 41 -3 35 -5 37 -38 39 -19 0 -65 -6 -102 -16z"/>
</g>
</svg>
